<?xml version="1.0" encoding="UTF-8" standalone="no"?>
<svg
        xmlns:dc="http://purl.org/dc/elements/1.1/"
        xmlns:cc="http://creativecommons.org/ns#"
        xmlns:rdf="http://www.w3.org/1999/02/22-rdf-syntax-ns#"
        xmlns="http://www.w3.org/2000/svg"
        xmlns:sodipodi="http://sodipodi.sourceforge.net/DTD/sodipodi-0.dtd"
        xmlns:inkscape="http://www.inkscape.org/namespaces/inkscape"
        width="1960"
        height="904"
        version="1.1"
        id="svg402"
        sodipodi:docname="ligntning.svg"
        inkscape:version="0.92.2 (5c3e80d, 2017-08-06)">
    <metadata
            id="metadata408">
        <rdf:RDF>
            <cc:Work
                    rdf:about="">
                <dc:format>image/svg+xml</dc:format>
                <dc:type
                        rdf:resource="http://purl.org/dc/dcmitype/StillImage"/>
                <dc:title></dc:title>
            </cc:Work>
        </rdf:RDF>
    </metadata>
    <defs
            id="defs406"/>
    <sodipodi:namedview
            borderopacity="1"
            objecttolerance="10"
            gridtolerance="10"
            guidetolerance="10"
            inkscape:pageopacity="0"
            inkscape:pageshadow="2"
            inkscape:window-width="2560"
            inkscape:window-height="1346"
            id="namedview404"
            showgrid="false"
            inkscape:zoom="2"
            inkscape:cx="-179.35189"
            inkscape:cy="249.8117"
            inkscape:window-x="-11"
            inkscape:window-y="-11"
            inkscape:window-maximized="1"
            inkscape:current-layer="svg402"/>
    <g
            id="g484">
        <path
                id="path2"
                d="M 0,0 V 210 C 0,210 8.58262,198.646 12.5756,193 22.0604,179.588 30.8879,165.668 40,152 L 83.3333,87 c 7.1668,-10.7501 24.31835,-36.181981 24.31835,-36.181981 0,0 -16.73545,7.436781 -23.65165,9.837881 C 71.0339,65.1572 58.0473,69.7545 45,74 57.4635,58.5381 69.4976,42.7068 81.6505,27 88.4577,18.202 102,0 102,0 Z"
                style="fill:#3c37cc;stroke:none"
                inkscape:connector-curvature="0"
                sodipodi:nodetypes="ccccccccccc"/>
        <path
                sodipodi:nodetypes="ccccccccccscsccccccccccc"
                inkscape:connector-curvature="0"
                id="path6"
                d="m 105.88388,136.77297 46.35356,-13.82843 c 0,0 -8.94344,7.49746 -13.06744,12.05546 -8.253,9.121 -16.629,18.109 -25.131,27 -25.4359,26.603 -49.642,54.397 -75.0784,81 -8.8255,9.23 -17.5627,18.531 -26.1304,28 -3.77687,4.174 -12.79355,13.3125 -12.79355,13.3125 0,0 -0.036414407,7.0235 -0.03665,10.6875 v 21 78 c 0,0 21.0821,-20.082 31,-30 21.5158,-21.516 42.4898,-43.49 64,-65 l 29,-29 c 4.912,-4.912 17.25,-19 17.25,-19 0,0 -19.744,8.807 -27.25,12.231 C 100.752,269.275 90.5,273.5 90.5,273.5 L 331.58021,62.057612 253,90 c 0,0 35.579,-44.9753 53.2,-67 C 312.213,15.4843 324,0 324,0 l -80.15625,0.009644 c 0,0 -31.54008,27.738843 -43.84375,39.990356 -20.318,20.3106 -41.234,40.1039 -62,59.9606 -10.811,10.3374 -32.11612,36.81237 -32.11612,36.81237 z"
                style="fill:#3c37cc;stroke:none"/>
        <path
                sodipodi:nodetypes="ccccaccccccccccccacccccccac"
                inkscape:connector-curvature="0"
                id="path40"
                d="m 822,47 c 0,0 -26.847,33.9131 -39.884,51 -84.73357,109.89689 -173.31937,232.93845 -242.119,337 -22.314,33.846 -43.756,68.345 -64.794,103 -5.263,8.669 -9.2663,16.1689 -13.678,24.375 C 458.92895,567.20386 454,577 454,577 c 0,0 24.531,-16.676 36,-25.116 15.537,-11.432 31.885,-21.897 47,-33.884 -14.229,34.177 -31.243,67.355 -46.691,101 -21.287,46.359 -42.315,92.869 -64.09,139 -10.346,21.919 -20.415,43.973 -30.528,66 C 392.082,831.862 385,852 385,852 l 41,-28 -34,80 h 155 c 0,0 15.059,-37.087 22.576,-55 16.477,-39.266 58.43961,-124.54074 58.43961,-124.54074 0,0 -20.09983,12.89249 -30.01561,19.54174 -14.13004,9.47522 -42,28.999 -42,28.999 0,0 25.978,-54.029 38.702,-81 25.432,-53.907 50.219,-108.034 77.556,-161 11.285,-21.864 23.323,-43.368 35.051,-65 C 712.87,455.741 724,435 724,435 c 0,0 -14.621,7.414 -21,11.667 -13.666,9.11 -54,27.333 -54,27.333 0,0 46.61574,-116.04102 70.076,-174 C 753.23618,215.60668 822,47 822,47 Z"
                style="fill:#3c37cc;stroke:none"/>
        <path
                sodipodi:nodetypes="cccccccccccaaccacaccc"
                inkscape:connector-curvature="0"
                id="path50"
                d="m 1681,504 c 0,0 15.9,-8.263 22,-12.576 14.22,-10.057 28.78,-20.953 44,-29.424 -21.63,51.947 -48.95,101.6 -71.86,153 -9.9677,21.53826 -25.14,61 -25.14,61 0,0 13.77,-9.425 20,-14.4 9.94,-7.939 30,-23.6 30,-23.6 0,0 -13.36,36.992 -19.95,55 -13.42,36.689 -26.79,73.409 -40.47,110 -5.61,14.978 -11.14,29.982 -16.63,45 -2.96,8.094 -7.95,25 -7.95,25 0,0 43.5868,-63.61771 64.51,-96 31.514,-48.77338 61.7179,-98.38528 91.89,-148 27.9998,-46.04265 82.7174,-138.89949 82.7174,-138.89949 L 1800.28,522 c 0,0 27.3123,-67.41249 41.5421,-100.87868 15.3422,-36.08248 47.2576,-107.71573 47.2576,-107.71573 0,0 -27.7724,23.55717 -41.8873,35.05888 C 1836.5744,357.11666 1815,374 1815,374 l 51.4038,-218.50684 z"
                style="fill:#3c37cc;stroke:none"/>
        <path
                sodipodi:nodetypes="czcccccccccccccccccccccc"
                inkscape:connector-curvature="0"
                id="path56"
                d="m 114,337 c 0,0 13.20087,-3.2818 22.09,-5.04 C 144.97913,330.2018 169,324 169,324 c 0,0 -27.26,32.263 -40.729,48 -28.2828,33.044 -56.694,65.975 -85.0002,99 l -27.5416,32 c -4.761,5.562 -15.65999308,19.13258 -15.65999308,19.13258 L 0,533 c 0,0 12.0901,-4.216 18,-6.599 8.3114,-3.351 17.0754,-6.22 25,-10.401 -8.3856,12.046 -19.2033,23.02 -28.9498,34 -4.34125,4.891 -14.013163,16.90625 -14.013163,16.90625 L 0,731 C 0,731 15.552,712.273 23.0008,703 37.4606,684.998 51.7877,666.859 66.4244,649 115.222,589.46 163.109,529.112 211.2,469 l 54.6,-68 13.6,-17 c 3.278,-4.098 11.04715,-14.94454 11.04715,-14.94454 0,0 -17.52815,10.16754 -24.44715,14.34354 -15.759,9.511 -31.375,19.293 -47,29.025 -8.493,5.289 -16.933,11.338 -26,15.576 C 264.31167,305.9581 424.25,72.25 424.25,72.25 424.25,72.25 206.50318,245.95017 114,337 Z"
                style="fill:#3c37cc;stroke:none"/>
        <path
                sodipodi:nodetypes="ccccccccccccccccccc"
                inkscape:connector-curvature="0"
                id="path202"
                d="m 1959.9531,362.01563 c 0,0 -25.9231,54.61837 -38.2631,81.98437 -6.2,13.765 -18.69,43 -18.69,43 0,0 38.4673,-20.34372 44,-23 -20.34,52.445 -39.57,105.362 -59.42,158 -5.63,14.908 -11.01,29.949 -16.24,45 -2.13,6.158 -5.34,20 -5.34,20 0,0 26.18,-20.665 39,-31 -4.5447,16.88225 -10.9022,34.65603 -15.65,50 -7.2,23.368 -14.63,46.677 -22,70.004 -2.88,9.111 -4.93,18.698 -8.1,27.71 -3.97,11.292 -7.34,22.628 -10.71,34.116 -2.27,7.763 -5.54,22.17 -5.54,22.17 0,0 7,-10.669 10.2,-16 6.17,-10.278 12.21,-20.634 18.22,-31 16.89,-29.094 34.03,-58.065 51.18,-87 8.49,-14.317 16.96,-28.648 25.39,-43 3.75,-6.389 12.0098,-21 12.0098,-21 z"
                style="fill:#3c37cc;stroke:none"/>
        <path
                sodipodi:nodetypes="ccccccccccccccccccacaccac"
                inkscape:connector-curvature="0"
                id="path218"
                d="M 896.5625,778.75 952,739 c 0,0 -9.594,20.731 -14.309,31 -6.907,15.044 -14.092,29.957 -21,45 C 902.982,844.857 874,904 874,904 l 124.49,-1.028 c 0,0 2.83,-4.7 3.7,-6.972 1.91,-4.975 3.71,-9.984 5.5,-15 6.69,-18.734 13.71,-37.387 20.73,-56 20.82,-55.197 40.48,-110.837 61.39,-166 6.55,-17.282 12.78,-34.683 19.24,-52 3.58,-9.593 8.95,-30 8.95,-30 0,0 -9.63,10.482 -13.88,16 -6.2,8.045 -12.55,15.969 -18.77,24 -9.33,12.059 -18.93,23.917 -28.23,36 -4.51,5.852 -9.81,11.362 -13.12,18 0.26,-8.628 4.59,-16.835 6.96,-25.001 4.94,-17.052 11.06,-33.949 16,-51 7.96,-27.464 16.2102,-54.97019 25.69,-81.999 20.4094,-58.19101 67.0779,-172.4099 67.0779,-172.4099 0,0 -58.1484,82.40469 -86.0379,124.4099 -28.8566,43.46176 -57.48,87.125 -84.087,132 -15.16,25.57 -28.784,51.877 -42.912,78 -12.12,22.411 -22.60338,45.93086 -33.691,69 -5.55083,11.54916 -16.4375,34.75 -16.4375,34.75 z"
                style="fill:#3c37cc;stroke:none"/>
        <path
                sodipodi:nodetypes="ccccccccc"
                inkscape:connector-curvature="0"
                id="path254"
                d="m 180,904 103.1133,-0.18831 c 0,0 7.0757,-16.22869 9.4657,-21.81169 7.59,-17.738 15.483,-35.35 23.281,-53 19.424,-43.964 38.576,-88.035 58,-132 C 384.632,672.619 406,623 406,623 l -61.13,68 c 0,0 -84.097,100.097 -122.294,153 C 208.404,863.627 180,904 180,904 Z"
                style="fill:#3c37cc;stroke:none"/>

        <path
                sodipodi:nodetypes="ccccccccccccccccccccccccccccccc"
                inkscape:connector-curvature="0"
                style="fill:#3c37cc;stroke:none"
                d="m 1455,339 c 0,0 22.28,-19.843 34,-28 -31.48,81.613 -59.01,164.846 -89.05,247 -9.25,25.284 -17.95,50.785 -27.37,76 -3.11,8.297 -5.9,16.706 -9,25 -2.3,6.146 -5.58,19 -5.58,19 0,0 14.54,-13.544 21,-20 15.18,-15.182 29.82,-30.822 45,-46 -7.47,27.384 -18.79,54.255 -28.31,81 -16.34,45.923 -32.04,92.077 -48.38,138 -8.5,23.865 -25.31,73 -25.31,73 l 54.5,-0.0557 c 0,0 11.036,-27.3306 14.69,-36.94427 6.33,-16.6435 24.96,-66.712 37.62,-100 45.05,-118.47 88.88,-237.41 133.61,-356 13.82,-36.639 27.68,-73.272 41.26,-110 l 12,-32 c 2.32,-6.276 5.32,-19 5.32,-19 0,0 -14.82,11.747 -22,17.754 -13.37,11.182 -26.69,22.423 -40,33.67 -6.32,5.34 -12.74,12.722 -20,16.576 1.81,-7.765 6.14,-15.476 8.95,-23 6.5,-17.373 13.06,-34.737 19.85,-52 20.73,-52.783 40.46,-105.995 60.62,-159 6.98,-18.3417 14.08,-36.6387 21,-55 C 1653.01,19.4803 1660,0 1660,0 l -33.0023,0.011304 c 0,0 -8.4577,14.729396 -11.3077,19.988696 -8.92,16.4979 -17.55,33.2226 -25.94,50 -31.2,62.4 -64.8,123.604 -96,186 -14.146,30.20095 -38.75,83 -38.75,83 z"
                id="path22"/>
        <path
                sodipodi:nodetypes="cccccccccacccccccccccccccccccccccc"
                inkscape:connector-curvature="0"
                style="fill:#3c37cc;stroke:none"
                d="m 1641,185 c 24.8619,-12.2301 68,-45 68,-45 0,0 -25.28,70.047 -38.05,105 -25.43,69.585 -50.7,139.239 -75.64,209 -1.73,4.846 -4.38,9.226 -6.24,14 -11.48,29.412 -22.14,59.267 -32.76,89 -4.37,12.219 -13.31,37 -13.31,37 l 16,-21 c 0,0 23.78,-39.302 35.6,-59 35.87,-59.784 71.1022,-117.85923 108.2,-175.81802 30.8635,-48.21877 95.135,-142.99569 95.135,-142.99569 L 1739.5,224 c 28.7381,-61.86192 33.6467,-75.00749 58.81,-130 C 1814.0067,60.098798 1840,0 1840,0 l -132.569,0.03991828 c 0,0 -13.3375,32.81510972 -18.101,46.96008172 -10.19,30.4742 -21.25,60.724 -32.02,91 -5.48,15.399 -16.31,47 -16.31,47 m 259,-49 36,-39 c 0,0 -7.13,22.557 -10.65,34 -7.57,24.604 -15.59,49.153 -22.81,73.83 -3.7,12.679 -10.54,38.17 -10.54,38.17 0,0 7.56,-9.997 10.42,-15 6.64,-11.602 12.98,-23.378 19.58,-35 8.87,-15.604 17.67,-31.269 26.31,-47 3.62,-6.596 11.6788,-21.00391 11.6788,-21.00391 L 1960,0 1942.4566,0.05659392 c 0,0 -2.2966,7.08921608 -3.2066,9.65788608 -3.18,9.03742 -6.01,17.93982 -8.71,27.11582 -1.99,6.788 -5.1,13.3637 -7.19,20.1697 -3.73,12.1003 -6.89,24.7657 -11.1,36.7145 C 1907.1019,108.78949 1900,136 1900,136 Z"
                id="path26"/>
        <path
                sodipodi:nodetypes="caacccccccc"
                inkscape:connector-curvature="0"
                style="fill:#3c37cc;stroke:none"
                d="m 1813.5,658 c 0,0 -35.2042,53.40471 -52.19,80.5 -19.7695,31.53576 -37.9227,64.07007 -57.86,95.5 -15.0002,23.64684 -46.45,70 -46.45,70 l 111.6142,-0.0285 c 0,0 7.8478,-24.59719 10.5958,-34.92152 6.42,-24.03 13.17,-47.947 19.49,-72.011 2.64,-10.028 8.3,-31.039 8.3,-31.039 0,0 -11.23,9.224 -16,14 -11.76,11.768 -35,36 -35,36 C 1781.8592,754.34009 1813.5,658 1813.5,658 Z"
                id="path280"/>

        <path
                style="fill:#3c37cc;stroke:none"
                d="M 352.52984,305.25166 C 414.06755,263.92223 437.73433,249.14521 472,232 c -2.549,4.803 -7.087,8.796 -10.586,13 -29.70468,35.63503 -59.3424,71.32579 -89,107 -72.144,86.685 -144.243,173.406 -216.494,260 -26.108,31.291 -52.079,62.695 -78.1669,94 L 55.2469,733 C 51.3917,737.626 45,748 45,748 c 0,0 40.6993,-19.747 62,-27 -24.4308,30.309 -48.8574,60.619 -73.1998,91 l -22.6004,28 c -3.43969,4.3 -11.20433339,14.7292 -11.20433339,14.7292 L 0,904 115.14606,903.9876 c 0,0 5.26394,-7.10263 7.18694,-9.98763 4.037,-6.054 8.293,-11.95 12.334,-18 14.121,-21.143 28.879,-41.858 43,-63 40.956,-61.322 88.54396,-115.36838 131.12096,-175.57538 21.19803,-30.88414 61.70253,-83.17157 61.70253,-83.17157 L 262,624 c 0,0 88.771,-116.146 133.349,-174 50.22,-65.179 99.554,-131.054 150.075,-196 27.85,-35.801 54.48375,-72.55307 82.786,-108 15.41976,-19.31236 47.3966,-57.010408 47.3966,-57.010408 0,0 -23.4546,10.354408 -29.6066,13.010408 -15.065,6.504 -30.239,15.461 -46,20 C 617.461,96.1219 635.399,70.4887 653.424,45 663.576,30.645 684.06614,0 684.06614,0 L 573.84886,0.01306263 c 0,0 -141.65346,168.58699737 -221.31902,305.23859737 z"
                id="path10"
                inkscape:connector-curvature="0"
                sodipodi:nodetypes="ccccccccccccccccccccccacsccccc"/>
        <path
                sodipodi:nodetypes="caaccccccccaccccaccccccccccccccccccccaaacccccccaac"
                inkscape:connector-curvature="0"
                style="fill:#3c37cc;stroke:none"
                d="m 885,96 c 0,0 -17.19561,34.55597 -25.44836,52 -15.72868,33.24603 -31.08196,66.67531 -45.86255,100.35355 C 805.1651,267.77585 789,307 789,307 c 0,0 43.8784,-55.10873 61.63,-79 C 886.48,179.74 922.215,131.393 957.884,83 970.182,66.3148 982.441,49.5841 994.873,33 1002.99,22.1691 1019,0 1019,0 L 917.34691,0.025269 c 0,0 -5.45,5.435666 -7.426,8.396606 L 897,28 c -13.031,19.5468 -25.76879,39.234671 -38.424,59 -6.50665,10.1623 -19.28311,30.63725 -19.28311,30.63725 m -27.56675,251.44943 76.76435,-36.45064 c 0,0 -38.22749,45.08396 -51.51649,64.36396 -28.135,40.821 -55.82595,81.95568 -83.641,123 -17.37516,25.63905 -34.692,51.319 -52.003,77 -8.465,12.558 -25.33,38 -25.33,38 0,0 23.324,-11.594 33,-17.4 24.003,-14.401 48.658,-28.154 72,-43.6 -12.968,33.425 -28.309,66.11 -42.576,99 -22.095,50.938 -43.753,102.062 -65.848,153 C 661.333,851.918 639,904 639,904 l 135.61,-0.603 c 0,0 4.306,-5.722 5.814,-8.397 4.084,-7.24 7.684,-14.729 11.715,-22 11.988,-21.627 23.049,-43.881 34.108,-66 4.965,-9.931 14.753,-32 14.753,-32 0,0 -17.063,10.375 -25,15.667 -14.666,9.777 -44,29.333 -44,29.333 0,0 25.618,-49.827 38.691,-74 20.781,-38.424 40.219,-77.574 61,-116 57.492,-106.304 111.125,-214.697 168.619,-321 26.84,-49.637 53.56,-99.597 78.94,-150 7.1,-14.109 14.76,-27.96 22.01,-42 3.2,-6.198 8.74,-19 8.74,-19 0,0 -10.2318,5.81702 -15,9.247 -8.4537,6.08108 -15.9945,13.33992 -24,20 -19.9863,16.62744 -39.9538,33.27779 -60,49.833 -11.3074,9.33821 -22.01,19.723 -34,27.92 24.98,-47.467 51.73,-94.158 77.86,-141 C 1106.55,43.0452 1130,0 1130,0 l -47.3203,1.4046959e-4 c 0,0 -4.1797,5.70444953041 -5.8197,7.99985953041 l -10.72,15 c -12.61,17.6016 -25.05,35.326 -37.56,53 -43.705,61.74 -86.1337,124.42174 -131.44,185 -15.12024,20.21701 -31.17097,39.72126 -46.82843,59.52513 -12.82259,16.21827 -38.58543,48.56155 -38.58543,48.56155 z"
                id="path14"/>

        <path
                sodipodi:nodetypes="cccccccccccccccccccccccccccccccccccccccccccccccccccccccccccc"
                inkscape:connector-curvature="0"
                id="path18"
                d="m 1177,106 c 4.28,-3.077 7.35,-7.2402 11.01,-11 7.44,-7.6247 14.82,-15.2108 22.08,-23 18.26,-19.6011 36.97,-39.0611 55.91,-58 -26.66,68.7345 -60.3,135.109 -93.25,201 -12.9157,27.98946 -50.75,96.5 -50.75,96.5 0,0 28.19,-32.159 34.09,-38.5 10.14,-10.903 20.16,-21.893 30.08,-33 40.51,-45.375 77.85,-93.064 115.25,-141 16.99,-21.7719 34.13,-43.4351 51.38,-65 8.62,-10.7758 26.2,-34 26.2,-34 l -156.7723,0.00716777 c 0,0 -6.3777,13.33563223 -8.3777,17.99283223 -6.32,14.7106 -12.9,29.3109 -19.27,44 -4.21,9.6855 -8.43,19.3949 -12.81,29 -2.14,4.6982 -4.77,15 -4.77,15 m 11,330 c 0,0 24.4088,-18.97149 34,-27.91 18.87,-17.55 37.89,-34.969 57,-52.26 7.59,-6.866 14.63,-14.935 23,-20.83 -13.86,25.991 -23.86,54.898 -35.42,82 -21.92,51.368 -44.08,102.632 -66,154 -12.1,28.352 -24.27,56.673 -36.43,85 -5.66,13.197 -17.15,42 -17.15,42 0,0 13.65,-8.872 19,-13.961 12.47,-11.868 25.77,-22.913 38,-35.039 -7.91,23.378 -18.57,46.183 -27.99,69 -14.68,35.579 -28.54,71.509 -43.43,107 -7.11,16.925 -13.92,33.977 -20.78,51 -3.7,9.185 -10.8,28 -10.8,28 l 158.7973,-0.0616 c 0,0 11.7462,-28.58964 16.3927,-40.93838 12.56,-33.166 24.57,-66.601 36.5,-100 2.99,-8.366 6.21,-16.657 9.26,-25 1.67,-4.564 3.05,-14 3.05,-14 0,0 -22.76,20.664 -34,30.83 -18.88,17.079 -38,34.168 -56,52.17 4.28,-14.983 12.29,-29.792 18.69,-44 9.41,-20.878 18.19,-42.052 27.45,-63 28.79,-65.154 57.33,-130.486 85.28,-196 11.28,-26.42 23.09,-52.607 34.43,-79 4.5951,-10.96506 11.15,-31 11.15,-31 0,0 -12.97,10.344 -19,15.576 -13.56,11.773 -40,36.424 -40,36.424 0,0 11.23,-22.957 16.75,-34 11.87,-23.739 23.82,-47.425 35.99,-71 33.39,-64.692 65.95,-129.888 98.51,-195 21.8208,-38.1565 57.375,-115 57.375,-115 0,0 -26.255,21.2521 -36.625,30.9105 -11.92,11.0971 -24.37,21.6947 -36,33.0895 9.48,-22.7773 23.84,-44.4537 35.86,-66 5.11,-9.1642 15.14,-29 15.14,-29 l -102.86,0.05902 c 0,0 -4.71,7.85895 -6.54,10.94098 -4.52,7.6385 -9.03,15.2997 -13.45,23 -15.18,26.4462 -30.72,52.7054 -46.16,79 -41.94,71.416 -83.61,142.931 -124.41,215 -14.07,24.838 -27.97,49.795 -41.36,75 -5.63,10.593 -17.22,33 -17.22,33 z"
                style="fill:#3c37cc;stroke:none"/>

        <path
                sodipodi:nodetypes="cccccccccccccccccac"
                inkscape:connector-curvature="0"
                style="fill:#3c37cc;stroke:none"
                d="m 1643,545 c 0,0 -24.12,28.671 -36.08,43 -24.44,29.291 -48.74,58.694 -73.17,88 l -34.83,42 c -6.15,7.414 -17.92,23 -17.92,23 l 43,-20 c 0,0 -45.15,85.174 -67.26,128 -9.41,18.239 -28.74,55 -28.74,55 l 101.0148,-6.6e-4 c 0,0 9.0913,-18.49292 12.5252,-25.99934 l 28.69,-63 c 7,-15.332 13.79,-30.779 21.03,-46 1.57,-3.313 10.2,-24.589 10.2,-24.589 0,0 -17.21,13.786 -19.46,15.59 -13.38,10.743 -27.61,21.139 -40,32.999 6.79,-20.073 16.38,-39.462 24.58,-59 17.76,-42.343 35.89,-84.553 53.41,-127 6.2,-15.033 11.0813,-26.05666 15.86,-39.375 C 1638.5212,560.18042 1643,545 1643,545 Z"
                id="path238"/>
        <path
                sodipodi:nodetypes="ccccccc"
                inkscape:connector-curvature="0"
                style="fill:#3c37cc;stroke:none"
                d="m 1960.0496,786.64645 c 0,0 -34.5596,52.28955 -51.0996,78.35355 l -16,25 c -2.91,4.577 -6.29,8.798 -7.95,14 h 75 c 0.129,-42.66312 -0.1712,-78.96922 0.05,-117.35355 z"
                id="path340"/>

    </g>
</svg>
